HIERARCHY
ROOT hip
{
  OFFSET 0 0 0
  CHANNELS 6 Xposition Yposition Zposition Zrotation Yrotation Xrotation
  JOINT abdomen
  {
    OFFSET 0 20.6881 -0.73152
    CHANNELS 3 Zrotation Xrotation Yrotation
    JOINT chest
    {
      OFFSET 0 11.7043 -0.48768
      CHANNELS 3 Zrotation Xrotation Yrotation
      JOINT neck
      {
        OFFSET 0 22.1894 -2.19456
        CHANNELS 3 Zrotation Xrotation Yrotation
        JOINT head
        {
          OFFSET -0.24384 7.07133 1.2192
          CHANNELS 3 Zrotation Xrotation Yrotation
          JOINT leftEye
          {
            OFFSET 4.14528 8.04674 8.04672
            CHANNELS 3 Zrotation Xrotation Yrotation
            End Site
            {
              OFFSET 1 0 0
            }
          }
          JOINT rightEye
          {
            OFFSET -3.6576 8.04674 8.04672
            CHANNELS 3 Zrotation Xrotation Yrotation
            End Site
            {
              OFFSET 1 0 0
            }
          }
        }
      }
      JOINT rCollar
      {
        OFFSET -2.68224 19.2634 -4.8768
        CHANNELS 3 Zrotation Xrotation Yrotation
        JOINT rShldr
        {
          OFFSET -8.77824 -1.95073 1.46304
          CHANNELS 3 Zrotation Xrotation Yrotation
          JOINT rForeArm
          {
            OFFSET -28.1742 -1.7115 0.48768
            CHANNELS 3 Zrotation Xrotation Yrotation
            JOINT rHand
            {
              OFFSET -22.5879 0.773209 7.07136
              CHANNELS 3 Zrotation Xrotation Yrotation
              JOINT rThumb1
              {
                OFFSET -1.2192 -0.487915 3.41376
                CHANNELS 3 Zrotation Xrotation Yrotation
                JOINT rThumb2
                {
                  OFFSET -3.37035 -0.52449 3.41376
                  CHANNELS 3 Zrotation Xrotation Yrotation
                  End Site
                  {
                    OFFSET -1.78271 -1.18214 1.43049
                  }
                }
              }
              JOINT rIndex1
              {
                OFFSET -7.75947 0.938293 5.60832
                CHANNELS 3 Zrotation Xrotation Yrotation
                JOINT rIndex2
                {
                  OFFSET -2.54057 -0.884171 1.56538
                  CHANNELS 3 Zrotation Xrotation Yrotation
                  End Site
                  {
                    OFFSET -1.62519 -0.234802 1.16502
                  }
                }
              }
              JOINT rMid1
              {
                OFFSET -8.24714 1.18213 3.41376
                CHANNELS 3 Zrotation Xrotation Yrotation
                JOINT rMid2
                {
                  OFFSET -3.10165 -0.590103 1.0647
                  CHANNELS 3 Zrotation Xrotation Yrotation
                  End Site
                  {
                    OFFSET -2.48547 -0.328903 0.83742
                  }
                }
              }
              JOINT rRing1
              {
                OFFSET -8.82822 0.546677 1.51678
                CHANNELS 3 Zrotation Xrotation Yrotation
                JOINT rRing2
                {
                  OFFSET -2.60934 -0.819778 -0.0198488
                  CHANNELS 3 Zrotation Xrotation Yrotation
                  End Site
                  {
                    OFFSET -2.33842 -0.294052 0.168128
                  }
                }
              }
              JOINT rPinky1
              {
                OFFSET -8.27202 -0.0477905 -0.4584
                CHANNELS 3 Zrotation Xrotation Yrotation
                JOINT rPinky2
                {
                  OFFSET -1.82734 -0.647385 -0.700984
                  CHANNELS 3 Zrotation Xrotation Yrotation
                  End Site
                  {
                    OFFSET -1.69225 -0.51767 -0.607171
                  }
                }
              }
            }
          }
        }
      }
      JOINT lCollar
      {
        OFFSET 2.68224 19.2634 -4.8768
        CHANNELS 3 Zrotation Xrotation Yrotation
        JOINT lShldr
        {
          OFFSET 8.77824 -1.95073 1.46304
          CHANNELS 3 Zrotation Xrotation Yrotation
          JOINT lForeArm
          {
            OFFSET 28.1742 -1.7115 0.48768
            CHANNELS 3 Zrotation Xrotation Yrotation
            JOINT lHand
            {
              OFFSET 22.5879 0.773209 7.07136
              CHANNELS 3 Zrotation Xrotation Yrotation
              JOINT lThumb1
              {
                OFFSET 1.2192 -0.487915 3.41376
                CHANNELS 3 Zrotation Xrotation Yrotation
                JOINT lThumb2
                {
                  OFFSET 3.37035 -0.52449 3.41376
                  CHANNELS 3 Zrotation Xrotation Yrotation
                  End Site
                  {
                    OFFSET 1.78271 -1.18214 1.43049
                  }
                }
              }
              JOINT lIndex1
              {
                OFFSET 7.75947 0.938293 5.60832
                CHANNELS 3 Zrotation Xrotation Yrotation
                JOINT lIndex2
                {
                  OFFSET 2.54057 -0.884171 1.56538
                  CHANNELS 3 Zrotation Xrotation Yrotation
                  End Site
                  {
                    OFFSET 1.62519 -0.234802 1.16502
                  }
                }
              }
              JOINT lMid1
              {
                OFFSET 8.24714 1.18213 3.41376
                CHANNELS 3 Zrotation Xrotation Yrotation
                JOINT lMid2
                {
                  OFFSET 3.10165 -0.590103 1.0647
                  CHANNELS 3 Zrotation Xrotation Yrotation
                  End Site
                  {
                    OFFSET 2.48547 -0.328903 0.83742
                  }
                }
              }
              JOINT lRing1
              {
                OFFSET 8.82822 0.546677 1.51678
                CHANNELS 3 Zrotation Xrotation Yrotation
                JOINT lRing2
                {
                  OFFSET 2.60934 -0.819778 -0.0198488
                  CHANNELS 3 Zrotation Xrotation Yrotation
                  End Site
                  {
                    OFFSET 2.33842 -0.294052 0.168128
                  }
                }
              }
              JOINT lPinky1
              {
                OFFSET 8.27202 -0.0477905 -0.4584
                CHANNELS 3 Zrotation Xrotation Yrotation
                JOINT lPinky2
                {
                  OFFSET 1.82734 -0.647385 -0.700984
                  CHANNELS 3 Zrotation Xrotation Yrotation
                  End Site
                  {
                    OFFSET 1.69225 -0.51767 -0.607171
                  }
                }
              }
            }
          }
        }
      }
    }
  }
  JOINT rButtock
  {
    OFFSET -8.77824 4.35084 1.2192
    CHANNELS 3 Zrotation Xrotation Yrotation
    JOINT rThigh
    {
      OFFSET 0 -1.70687 -2.19456
      CHANNELS 3 Zrotation Xrotation Yrotation
      JOINT rShin
      {
        OFFSET 0 -36.8199 0.73152
        CHANNELS 3 Zrotation Xrotation Yrotation
        JOINT rFoot
        {
          OFFSET 0.73152 -45.1104 -5.12064
          CHANNELS 3 Zrotation Xrotation Yrotation
          End Site
          {
            OFFSET -1.1221 -3.69964 12.103
          }
        }
      }
    }
  }
  JOINT lButtock
  {
    OFFSET 8.77824 4.35084 1.2192
    CHANNELS 3 Zrotation Xrotation Yrotation
    JOINT lThigh
    {
      OFFSET 0 -1.70687 -2.19456
      CHANNELS 3 Zrotation Xrotation Yrotation
      JOINT lShin
      {
        OFFSET 0 -36.8199 0.73152
        CHANNELS 3 Zrotation Xrotation Yrotation
        JOINT lFoot
        {
          OFFSET -0.73152 -45.1104 -5.12064
          CHANNELS 3 Zrotation Xrotation Yrotation
          End Site
          {
            OFFSET 1.1221 -3.69964 12.103
          }
        }
      }
    }
  }
}
MOTION
Frames:	4
Frame Time:	0.03333
-0.1409195363521576 66.72141551971436 17.204038612544537 -15.039618929693686 -20.557774863923886 14.32172677433762 11.87634232032828 6.089038512985497 10.806444413264558 -2.282611441134415 -6.800088099453681 2.508613009260028 -2.3886117081847815 12.94796741147837 0.20429826851192742 6.449961076654604 -25.972706149227683 2.1851760178598325 0.0517035181607916 -0.15286726422684874 -0.025472043251225405 -0.04398759219364571 -0.0014037639569962925 0.310073939732477 0.04919915993249767 0.1464111613160264 -0.22448921483298426 68.59221572098807 46.8953377657826 -9.296865884985959 -28.07823490428917 -35.85303923651469 76.91273850751926 0.13759842969813812 9.342146624088558 1.1076240300574647 -0.34756730268590996 0.05528018940835109 0.17909334969027296 -0.07925175215671576 -0.1994974992990547 -0.20320511807960803 0.19925486750096058 0.06985682695336322 -0.06119550675555237 7.083787263706155 5.169426965776858 0.5184861699197206 0.1170329435506413 -0.13001830710159915 0.20534646242568635 2.7182831681933175 0.860260404972402 -0.11277346682949209 -0.009351436108246599 0.13289648478481902 0.3114570530394046 10.102212636248515 0.5821503098125566 0.20120688754098262 0.2573405037500415 -0.035332675298181744 -0.03556434144100682 1.787316431489532 -0.5867604206980507 -0.16760881348771967 0.37808320051535177 0.02347199844360171 0.1512953602223938 -51.13814882535697 30.79418791075846 -26.354003167190935 28.198671629924007 -35.64495410835566 -76.05620546484299 0.8663763591264724 -28.31469263826043 4.442859616401228 0.06919637967713473 0.07165316670507658 0.24765230729920154 0.07244482831856337 -0.07249322661213525 -0.09995394880931863 0.03423600304957157 -0.08311361048254973 -0.07377965005362484 -7.352443363198497 5.024260686478346 -0.47339464840147155 -0.05952168352207612 -0.19156748959011122 0.28321043220084663 -2.5457628350425505 0.8370217001776384 0.1323919846011637 0.04964517662138479 -0.26293496228881086 -0.1485874837011746 -9.959045041055878 0.7190503526680608 0.024774696945222968 0.0967519708006512 0.16223969783070785 -0.28932905439756157 -1.941627907199868 -0.6833768616024661 0.08404862602732745 0.06312855701237176 0.05826322116750127 0.2503957488288724 0.08273835028459571 1.032110739254273 -7.1990825644432626 1.1077992670983579 37.81012749034429 0.8087535215545126 -17.942497138273296 -19.150071168436966 -33.199319498667975 0.06234121762796912 0.0016585753697627252 -0.21355984494390604 71.54679163139551 -61.7287771900957 61.49867494714714 3.502841598386706 76.64502241281144 -3.61846005244892 2.042875002918141 -5.293313790716196 3.8556563006241844
-0.2552991732954979 66.5605902671814 17.405807925388217 -14.782527194239822 -20.39310754077134 14.567908990139681 11.485378877142166 6.04927400541133 11.074336385343505 -2.226604530270545 -6.88559224946531 2.549672051125325 -2.4460766509930374 12.908015927475672 0.0878453574322083 6.490155886146482 -26.198437071107435 1.957153994400365 0.06153520194505472 -0.1745399880718281 -0.05077149082377576 -0.031036059423420595 0.02137486356414334 0.28049826013096973 0.03444755215085685 0.1678949877417726 -0.22853759602009774 66.96587937771633 46.9983575090339 -7.249493629386188 -28.11067488775215 -35.89413306965607 76.81743687803008 0.14145983445672253 9.50008621090864 1.1279532343483614 -0.3753106239600026 0.023627011721249265 0.16392333946111598 -0.05593967618922756 -0.2037087378091907 -0.22489481067580663 0.219130077655463 0.041520613242801735 -0.06790408654182715 7.064995705752157 5.15972809715544 0.5301945015392976 0.092012786682121 -0.13977149707126 0.2259528229864975 2.7147408613350197 0.8858665707273682 -0.134839993768805 -0.013186907492326103 0.14977633682315353 0.2961867777676659 10.058604439718923 0.5656878463655334 0.2259921766155044 0.26769325626278256 -0.05318796372735867 -0.03336384658949912 1.7671336493789673 -0.5883361666839139 -0.1511056890707937 0.3751754609196304 0.004782519801184084 0.1499593645485687 -50.86795337198044 30.605018991505784 -26.167161634897944 28.20222162074512 -35.865330161926124 -76.39545413072835 0.9268316974915775 -28.590260035419178 4.461321190840949 0.08113523018119967 0.06249233556335565 0.2683530098479235 0.04412024727393205 -0.0716242984836627 -0.08082162844876088 0.034724788462050606 -0.07592782458887319 -0.07880805666492939 -7.371128199446713 5.011545862451544 -0.46202291704192927 -0.06004696775793241 -0.18188612332844128 0.2802498653607634 -2.5567406565860535 0.8376171005741931 0.11314835350147588 0.03505610599764911 -0.24869828673756553 -0.1740376223222884 -9.949138705438422 0.694972921987561 0.014334646077152699 0.14686870394913792 0.14482143478670595 -0.27518095786211483 -1.900319990316689 -0.7071943715685353 0.07057575772435996 0.06932492597174848 0.04595554044825564 0.24943861521057145 -0.1442529549404346 1.0021364540816722 -6.980678727995642 1.1555747327953045 37.669292404753214 0.7032939066656348 -17.656616155467827 -18.655357151758356 -33.07670394268791 0.02985000774621846 0.017503173501164256 -0.23164202371957432 71.01863359344593 -62.02813072103902 61.43969626366408 3.625498135501795 76.95359669913428 -3.751261554915594 2.262205610658767 -5.6253715480660045 4.937130524557432
-0.3314252942800522 66.37120246887207 17.67521002329886 -14.85050977459625 -20.89400800129069 14.836632537750077 11.734611626182284 5.962503282195487 11.089922877029474 -2.276094373449165 -6.879691392909241 2.602700999511069 -2.35813070835313 12.826731553710642 0.21587106356516197 6.42126062176221 -26.151855180967946 2.083156043548291 0.07352752002371617 -0.18805063585864223 -0.038867111430678225 -0.06927231217079823 0.0001875100370580063 0.2623386013969041 0.024612079746038486 0.16815752313799498 -0.2255648095447026 67.34931253734251 47.32778436289279 -7.5792423559097095 -28.193340667276814 -36.04709174102392 76.99893549484483 0.12951212605107773 9.159104384521386 1.0861142702572135 -0.3682380697961602 0.015082551791269095 0.14487372842253884 -0.014266771072275697 -0.18776163347938607 -0.21159749957884963 0.26317572645705384 0.036018468979533334 -0.07563996946795418 7.063872993407336 5.141054359964625 0.544284648188505 0.08856012605667955 -0.11752055502435674 0.23573002533995918 2.711776559235234 0.8955101575051915 -0.12964392735771782 0.001039949661987332 0.14279791120381033 0.30894839926245293 10.059474435064454 0.5628300525281177 0.2579497779683478 0.28745758256497805 -0.06327658001829063 -0.024131618626610403 1.7684595598515962 -0.5549979066233758 -0.1950445094448973 0.37729153890186495 0.012604153617906498 0.19690266774468454 -50.86955163624622 30.236304889540985 -26.28163048274548 28.102220821106965 -35.712859849083934 -75.98104606321617 0.9051513964054876 -27.901616457636397 4.325201497098119 0.08587591507371743 0.03857349333764701 0.25071009761325164 0.017173977059468156 -0.047236467721897483 -0.10553581418680577 0.05275349966312239 -0.07384611099590024 -0.10704854100540492 -7.372694874087585 4.9649315289135 -0.42978325022070546 -0.08547693597665348 -0.21071667198018243 0.32174614605464696 -2.585291701090353 0.8180829729913682 0.12883815179864141 0.008114744981651165 -0.21726426207328592 -0.1962461958519964 -9.94828493179217 0.6546444969200439 0.007560699246086771 0.14753123229862916 0.1383289130937857 -0.26291084318330427 -1.874326424769736 -0.7444130328512868 0.0947683944862509 0.04244999921759948 0.08118885783835485 0.2772370048848473 -0.1252539299903979 1.753658326476767 -6.7265478795469775 1.267984278608082 36.894520141536574 0.6462163636493654 -17.663822005042192 -18.659042038815578 -33.389335361377725 0.026268427300193024 0.017466194430110986 -0.23548443201452962 71.37342093969308 -62.234730283053565 62.0825946494807 3.3868841961869305 77.2638375516146 -3.5384078874988436 2.2003369033831452 -5.722100260204902 5.011678624253536
-0.4111753776669502 66.33322834968567 17.936817137524486 -15.08096718738165 -21.30282726651451 14.79460638378699 12.053276663230168 5.956176819476763 10.919083624188177 -2.3955052900480283 -6.828074799577809 2.589164204906339 -2.2544889910005335 12.740076943710692 0.3201077544274902 6.34208336135613 -25.982374281997835 2.2282424950108783 0.06771406854468329 -0.18806845838350775 -0.02912064492848159 -0.09075987385624677 -0.02854874998762525 0.2334179796254834 -0.011202123888629154 0.1656830203068934 -0.22309687009850657 68.21670558079911 47.42222538854656 -8.553011326821027 -28.170222184483613 -36.00367222847015 76.94798228363653 0.17732750566598668 8.883534426041699 1.0995204374940677 -0.33747196292751375 0.020776474959826756 0.15127905848183565 0.008999521283432269 -0.16896047057186817 -0.18989686800780842 0.29552702418252497 0.04756885247455381 -0.09257414285453142 7.035941788570215 5.1111543530992485 0.5633784420132757 0.08428357386260532 -0.1155101315308458 0.2306280874733712 2.701521457083283 0.9037217524348393 -0.11910014299162797 0.021006727040050233 0.131365135028561 0.33231575707353594 10.089674970253311 0.5733400061134748 0.26669226002340546 0.28551834244922336 -0.06589040803628989 -0.019725292838305927 1.8066059529227059 -0.4956807018895769 -0.21411594507230672 0.3802696081016963 0.034555314393269664 0.24193453182940172 -50.995445683027896 30.000970721688198 -26.244817470666405 27.99417747372112 -35.43352560259792 -75.35705364102215 0.8207171848551718 -27.112253202805316 4.1479696140805125 0.07743572225028574 0.03581852586375179 0.22609068074994068 0.02318635779807766 -0.014395637532006797 -0.11351272808544019 0.07430893635344794 -0.10116836177983218 -0.10670126857479209 -7.371526057965867 4.911641539235414 -0.3989120758327172 -0.11153288036063563 -0.226025580509414 0.35130912577316625 -2.5992846242655934 0.7875514937928824 0.1667513579426186 0.007996070444822194 -0.19416605640418372 -0.20618316059901293 -9.922976519596334 0.6383458512913951 0.03174554532345567 0.11298498925035093 0.15199121242451527 -0.257274336292457 -1.876124898955565 -0.7756314796698879 0.1401431554116439 0.037730178418562 0.11734809274781392 0.2673020144893878 -0.014397184996740628 2.2666571864503227 -6.602106955511223 1.2662692607961739 36.290683607583254 0.7168915326426608 -17.8561259811239 -18.914969227015956 -33.634457190311146 0.07149303078555151 -0.009371353046588062 -0.23518699862051673 71.57283514270077 -62.04942725087112 62.262795530353145 3.1586811727144575 77.1834803760294 -3.3673090874690854 2.0811590669897084 -5.661771333700296 4.575608184901834
